<?xml version="1.0" encoding="UTF-8"?>
<svg version="1.1" xmlns="http://www.w3.org/2000/svg" width="256" height="157">
<path d="M0 0 C21.55172414 0 21.55172414 0 31.25 7.8125 C34.86992669 12.33740836 35.52387119 18.00652352 35.37890625 23.66015625 C34.46218158 29.32116738 31.49351098 33.64542028 27.3125 37.4375 C20.35614519 40.71879944 13.57455317 41.09649112 6 41 C6.01160156 42.14339844 6.02320312 43.28679687 6.03515625 44.46484375 C6.04453288 45.95572754 6.05363321 47.44661309 6.0625 48.9375 C6.07087891 49.69224609 6.07925781 50.44699219 6.08789062 51.22460938 C6.09652441 53.14994313 6.05224333 55.07535581 6 57 C5.505 57.495 5.505 57.495 5 58 C3.35 58 1.7 58 0 58 C0 38.86 0 19.72 0 0 Z " fill="#FF0B0B" transform="translate(113,49)"/>
<path d="M0 0 C1.98 0 3.96 0 6 0 C6 19.14 6 38.28 6 58 C-2.64477605 49.35522395 -11.03651703 40.49988175 -18.609375 30.890625 C-22.2637571 26.47192768 -26.16411898 22.26209002 -30 18 C-30.33 30.87 -30.66 43.74 -31 57 C-33.97 57.495 -33.97 57.495 -37 58 C-37 39.19 -37 20.38 -37 1 C-33.15004188 4.07996649 -30.70592039 6.36988632 -27.75 10.125 C-24.76360694 13.85304697 -21.722137 17.47367524 -18.5 21 C-14.50282296 25.38219409 -10.74857838 29.9243629 -7.04296875 34.5546875 C-5.15475848 36.81476327 -3.08246014 38.91753986 -1 41 C-0.67 27.47 -0.34 13.94 0 0 Z " fill="#FF1212" transform="translate(188,49)"/>
<path d="M0 0 C0 1.98 0 3.96 0 6 C-0.6290625 6.13535156 -1.258125 6.27070312 -1.90625 6.41015625 C-9.28872421 8.26689299 -15.01212675 11.24153519 -19.16015625 17.84765625 C-21.54778959 23.2559234 -21.89584091 29.2023881 -21 35 C-18.78523045 40.58424802 -14.98988288 44.70479433 -10 48 C-6.71445721 49.22161111 -3.40464154 50.17238951 0 51 C0 53.31 0 55.62 0 58 C-9.53457629 57.69243302 -16.36152254 54.10958154 -22.9375 47.1875 C-28.3487827 40.43615908 -29.59723233 33.46562364 -29.34765625 24.92578125 C-28.45813984 17.43985099 -24.61602613 10.97278085 -19 6 C-12.86323857 1.81485881 -7.4799556 -0.21371302 0 0 Z " fill="#FF0F0F" transform="translate(109,50)"/>
<path d="M0 0 C1.9269851 -0.03046171 3.85410893 -0.05223479 5.78125 -0.0703125 C6.85439453 -0.08336426 7.92753906 -0.09641602 9.03320312 -0.10986328 C12.79228169 0.02933894 14.98546083 0.73909562 18 3 C21.71325444 7.10412333 22.64422858 10.44029367 22.390625 15.8203125 C21.63320126 20.04673698 19.30116685 22.75489249 16.27734375 25.6484375 C13.1837963 27.48440219 10.8826264 27.32995804 7.3125 27.25 C6.15363281 27.23453125 4.99476562 27.2190625 3.80078125 27.203125 C1 27 1 27 0 26 C-0.08748207 24.07332493 -0.10697334 22.14348139 -0.09765625 20.21484375 C-0.09443359 19.04501953 -0.09121094 17.87519531 -0.08789062 16.66992188 C-0.07951172 15.43822266 -0.07113281 14.20652344 -0.0625 12.9375 C-0.05798828 11.70193359 -0.05347656 10.46636719 -0.04882812 9.19335938 C-0.03699608 6.12885883 -0.02051173 3.06445279 0 0 Z " fill="#FFF9F9" transform="translate(119,56)"/>
<path d="M0 0 C6.93 0 13.86 0 21 0 C21 2.31 21 4.62 21 7 C14.07 7 7.14 7 0 7 C0 4.69 0 2.38 0 0 Z " fill="#FF1818" transform="translate(52,75)"/>
<path d="M0 0 C2.31 0 4.62 0 7 0 C7 6.93 7 13.86 7 21 C4.69 21 2.38 21 0 21 C0 14.07 0 7.14 0 0 Z " fill="#FF1616" transform="translate(106,21)"/>
<path d="M0 0 C0.33 1.98 0.66 3.96 1 6 C-1.21954651 7.37257477 -3.44835409 8.72259151 -5.6875 10.0625 C-6.31333984 10.45244141 -6.93917969 10.84238281 -7.58398438 11.24414062 C-10.57866815 13.01586454 -12.43638913 14.04839459 -15.95703125 13.74609375 C-16.63121094 13.49988281 -17.30539063 13.25367187 -18 13 C-18.33 11.68 -18.66 10.36 -19 9 C-16.58961315 7.48901123 -14.17259962 5.991175 -11.75 4.5 C-11.06808594 4.07074219 -10.38617188 3.64148438 -9.68359375 3.19921875 C-9.01972656 2.79316406 -8.35585937 2.38710937 -7.671875 1.96875 C-7.0644043 1.59169922 -6.45693359 1.21464844 -5.83105469 0.82617188 C-4 0 -4 0 0 0 Z " fill="#FF0F0F" transform="translate(77,95)"/>
<path d="M0 0 C4.70006379 0.52222931 7.83584119 1.77200798 11.8125 4.3125 C13.24529297 5.20388672 13.24529297 5.20388672 14.70703125 6.11328125 C17 8 17 8 17.88671875 10.10546875 C18 12 18 12 17 14 C11.90352283 13.51203942 8.33295446 11.69361497 4.125 8.9375 C3.23554687 8.37192383 3.23554687 8.37192383 2.328125 7.79492188 C0.87972678 6.87215204 -0.56096031 5.93729737 -2 5 C-1.34 3.35 -0.68 1.7 0 0 Z " fill="#FF0F0F" transform="translate(60,48)"/>
<path d="M0 0 C3.41206898 1.58150643 4.67501826 4.68378388 6.390625 7.8671875 C6.75414063 8.50527344 7.11765625 9.14335938 7.4921875 9.80078125 C9.11192128 12.7175199 10.140625 14.60676397 10.140625 17.9921875 C8.160625 18.3221875 6.180625 18.6521875 4.140625 18.9921875 C2.60399016 16.75163612 1.08661796 14.50156477 -0.421875 12.2421875 C-1.07833008 11.29085937 -1.07833008 11.29085937 -1.74804688 10.3203125 C-4.92272457 5.52079977 -4.92272457 5.52079977 -4.60131836 2.83886719 C-3.59965739 0.34575643 -2.64383493 -0.01110855 0 0 Z " fill="#FF1111" transform="translate(82.859375,28.0078125)"/>
<path d="M0 0 C1.9375 0.8125 1.9375 0.8125 4 2 C5 5 5 5 3.48828125 8.3203125 C2.7739241 9.59471501 2.04816037 10.8627751 1.3125 12.125 C0.78366211 13.09373047 0.78366211 13.09373047 0.24414062 14.08203125 C-2.40201444 18.69708049 -2.40201444 18.69708049 -5.08203125 20.0546875 C-7 20 -7 20 -10 18 C-8.6948802 13.5730861 -6.9640877 10.04331547 -4.4375 6.1875 C-3.81746094 5.23230469 -3.19742188 4.27710937 -2.55859375 3.29296875 C-1 1 -1 1 0 0 Z " fill="#FF1111" transform="translate(88,109)"/>
<path d="M0 0 C2.375 1.0625 2.375 1.0625 4 3 C4.25 6.6875 4.25 6.6875 4 10 C0.60268371 12.09065618 -2.04269405 12.42098999 -6 12 C-7.875 10.875 -7.875 10.875 -9 9 C-9.39365568 5.85075452 -9.52854531 3.88090884 -7.875 1.125 C-5.10703881 -0.53577671 -3.16909182 -0.38805206 0 0 Z " fill="#3F322C" transform="translate(133,115)"/>
<path d="M0 0 C0.99 0.66 1.98 1.32 3 2 C3.37331109 5.42201828 3.63763183 7.90185629 1.875 10.9375 C-0.88980433 12.50422245 -2.88188517 12.38976435 -6 12 C-7.875 10.875 -7.875 10.875 -9 9 C-9.39365568 5.85075452 -9.52854531 3.88090884 -7.875 1.125 C-5.14747535 -0.51151479 -3.12026907 -0.32502803 0 0 Z " fill="#4C3B33" transform="translate(119,115)"/>
<path d="M0 0 C6.3782235 -0.36103152 6.3782235 -0.36103152 8.9375 1.125 C10.52225401 3.92162472 10.45947423 5.8493196 10 9 C8.375 10.875 8.375 10.875 6 12 C4.02 12 2.04 12 0 12 C0 8.04 0 4.08 0 0 Z " fill="#23252F" transform="translate(139,115)"/>
<path d="M0 0 C2.97 0 5.94 0 9 0 C9 0.66 9 1.32 9 2 C7.02 2 5.04 2 3 2 C3 2.99 3 3.98 3 5 C4.65 5 6.3 5 8 5 C8 5.66 8 6.32 8 7 C6.35 7 4.7 7 3 7 C3 8.65 3 10.3 3 12 C2.01 12 1.02 12 0 12 C0 8.04 0 4.08 0 0 Z " fill="#494443" transform="translate(100,115)"/>
<path d="M0 0 C2.5 0.125 2.5 0.125 3.5 1.125 C3.625 4.125 3.625 4.125 3.5 7.125 C2.5 8.125 2.5 8.125 0.0625 8.3125 C-2.5 8.125 -2.5 8.125 -4.5 6.125 C-3.77607362 0.18880368 -3.77607362 0.18880368 0 0 Z " fill="#F0F2F0" transform="translate(130.5,116.875)"/>
<path d="M0 0 C2.5 0.125 2.5 0.125 3.5 1.125 C3.625 4.125 3.625 4.125 3.5 7.125 C2.5 8.125 2.5 8.125 0.0625 8.3125 C-2.5 8.125 -2.5 8.125 -4.5 6.125 C-3.77607362 0.18880368 -3.77607362 0.18880368 0 0 Z " fill="#F0F2F0" transform="translate(116.5,116.875)"/>
<path d="M0 0 C1.2065625 0.0309375 1.2065625 0.0309375 2.4375 0.0625 C2.7675 0.7225 3.0975 1.3825 3.4375 2.0625 C1.7875 2.0625 0.1375 2.0625 -1.5625 2.0625 C-0.18558038 4.81633923 1.80470042 5.57733101 4.4375 7.0625 C3.5625 10.9375 3.5625 10.9375 2.4375 12.0625 C0.77132885 12.10313832 -0.89638095 12.105221 -2.5625 12.0625 C-2.8925 11.4025 -3.2225 10.7425 -3.5625 10.0625 C-1.5825 10.0625 0.3975 10.0625 2.4375 10.0625 C2.4375 9.0725 2.4375 8.0825 2.4375 7.0625 C0.7875 6.7325 -0.8625 6.4025 -2.5625 6.0625 C-2.94468767 4.40635343 -3.27645102 2.73792976 -3.5625 1.0625 C-2.5625 0.0625 -2.5625 0.0625 0 0 Z " fill="#2D313A" transform="translate(154.5625,114.9375)"/>
<path d="M0 0 C4.875 0.875 4.875 0.875 6 2 C6.04063832 3.66617115 6.042721 5.33388095 6 7 C4.02 7.33 2.04 7.66 0 8 C0 5.36 0 2.72 0 0 Z " fill="#F0F1ED" transform="translate(141,117)"/>
<path d="M0 0 C0.99 0 1.98 0 3 0 C3.2475 0.639375 3.495 1.27875 3.75 1.9375 C4.81562433 4.18741541 4.81562433 4.18741541 7.125 4.75 C7.74375 4.8325 8.3625 4.915 9 5 C9 5.99 9 6.98 9 8 C5.7 8.33 2.4 8.66 -1 9 C-0.67 8.34 -0.34 7.68 0 7 C0.04022391 4.6670134 0.04320247 2.33293334 0 0 Z " fill="#B7C1BE" transform="translate(148,117)"/>
<path d="M0 0 C3.0625 0.25 3.0625 0.25 6.0625 2.25 C6.25 5.375 6.25 5.375 6.0625 8.25 C5.753125 7.610625 5.44375 6.97125 5.125 6.3125 C4.2279837 4.31389179 4.2279837 4.31389179 3.0625 3.25 C1.39632885 3.20936168 -0.27138095 3.207279 -1.9375 3.25 C-2.5975 4.9 -3.2575 6.55 -3.9375 8.25 C-4.2675 8.25 -4.5975 8.25 -4.9375 8.25 C-5.0625 5.375 -5.0625 5.375 -4.9375 2.25 C-2.9375 0.25 -2.9375 0.25 0 0 Z " fill="#2A2934" transform="translate(129.9375,114.75)"/>
<path d="M0 0 C3.0625 0.25 3.0625 0.25 6.0625 2.25 C6.25 5.375 6.25 5.375 6.0625 8.25 C5.753125 7.610625 5.44375 6.97125 5.125 6.3125 C4.2279837 4.31389179 4.2279837 4.31389179 3.0625 3.25 C1.39632885 3.20936168 -0.27138095 3.207279 -1.9375 3.25 C-2.5975 4.9 -3.2575 6.55 -3.9375 8.25 C-4.2675 8.25 -4.5975 8.25 -4.9375 8.25 C-5.0625 5.375 -5.0625 5.375 -4.9375 2.25 C-2.9375 0.25 -2.9375 0.25 0 0 Z " fill="#2A2934" transform="translate(115.9375,114.75)"/>
<path d="M0 0 C1.875 1.125 1.875 1.125 2.875 2.125 C2.91580783 4.12458364 2.91754356 6.12545254 2.875 8.125 C1.555 8.455 0.235 8.785 -1.125 9.125 C-0.465 8.795 0.195 8.465 0.875 8.125 C-0.13660848 3.73185207 -0.13660848 3.73185207 -3.25 0.75 C-3.86875 0.54375 -4.4875 0.3375 -5.125 0.125 C-2.125 -0.875 -2.125 -0.875 0 0 Z " fill="#403840" transform="translate(146.125,115.875)"/>
<path d="M0 0 C2.31 0 4.62 0 7 0 C7 1.98 7 3.96 7 6 C6.67 5.01 6.34 4.02 6 3 C4.02 3 2.04 3 0 3 C0 2.01 0 1.02 0 0 Z " fill="#F9F5EC" transform="translate(103,117)"/>
<path d="M0 0 C0.66 0.33 1.32 0.66 2 1 C0.71451591 2.33929505 -0.57858155 3.67128643 -1.875 5 C-2.59429687 5.7425 -3.31359375 6.485 -4.0546875 7.25 C-6 9 -6 9 -8 9 C-6.4169423 4.7257442 -3.49431596 2.73468206 0 0 Z " fill="#FF2525" transform="translate(93,54)"/>
<path d="M0 0 C1.65 0 3.3 0 5 0 C5.33 0.66 5.66 1.32 6 2 C4.35 2 2.7 2 1 2 C1.66 3.32 2.32 4.64 3 6 C1.68 5.67 0.36 5.34 -1 5 C-0.67 3.35 -0.34 1.7 0 0 Z " fill="#2A2B32" transform="translate(152,115)"/>
<path d="M0 0 C2.97 0.495 2.97 0.495 6 1 C6 1.99 6 2.98 6 4 C3.69 3.67 1.38 3.34 -1 3 C-0.67 2.01 -0.34 1.02 0 0 Z " fill="#F3EADF" transform="translate(151,121)"/>
<path d="M0 0 C0 2.31 0 4.62 0 7 C-0.99 7.33 -1.98 7.66 -3 8 C-4.34882814 5.30234372 -3.80338265 3.84835666 -3 1 C-1 0 -1 0 0 0 Z " fill="#6D7783" transform="translate(137,118)"/>
</svg>
